%TF.GenerationSoftware,KiCad,Pcbnew,9.0.7-9.0.7~ubuntu24.04.1*%
%TF.CreationDate,2026-03-16T20:19:28+01:00*%
%TF.ProjectId,Laboratory,4c61626f-7261-4746-9f72-792e6b696361,rev?*%
%TF.SameCoordinates,Original*%
%TF.FileFunction,Soldermask,Bot*%
%TF.FilePolarity,Negative*%
%FSLAX46Y46*%
G04 Gerber Fmt 4.6, Leading zero omitted, Abs format (unit mm)*
G04 Created by KiCad (PCBNEW 9.0.7-9.0.7~ubuntu24.04.1) date 2026-03-16 20:19:28*
%MOMM*%
%LPD*%
G01*
G04 APERTURE LIST*
G04 Aperture macros list*
%AMRoundRect*
0 Rectangle with rounded corners*
0 $1 Rounding radius*
0 $2 $3 $4 $5 $6 $7 $8 $9 X,Y pos of 4 corners*
0 Add a 4 corners polygon primitive as box body*
4,1,4,$2,$3,$4,$5,$6,$7,$8,$9,$2,$3,0*
0 Add four circle primitives for the rounded corners*
1,1,$1+$1,$2,$3*
1,1,$1+$1,$4,$5*
1,1,$1+$1,$6,$7*
1,1,$1+$1,$8,$9*
0 Add four rect primitives between the rounded corners*
20,1,$1+$1,$2,$3,$4,$5,0*
20,1,$1+$1,$4,$5,$6,$7,0*
20,1,$1+$1,$6,$7,$8,$9,0*
20,1,$1+$1,$8,$9,$2,$3,0*%
G04 Aperture macros list end*
%ADD10C,3.800000*%
%ADD11R,1.700000X1.700000*%
%ADD12O,1.700000X1.700000*%
%ADD13R,0.850000X0.850000*%
%ADD14O,0.850000X0.850000*%
%ADD15R,2.400000X2.400000*%
%ADD16C,2.400000*%
%ADD17R,1.600000X1.600000*%
%ADD18O,1.600000X1.600000*%
%ADD19C,1.700000*%
%ADD20R,1.000000X1.000000*%
%ADD21C,1.000000*%
%ADD22R,1.050000X1.500000*%
%ADD23O,1.050000X1.500000*%
%ADD24RoundRect,0.250001X-0.949999X0.949999X-0.949999X-0.949999X0.949999X-0.949999X0.949999X0.949999X0*%
%ADD25RoundRect,0.250001X0.949999X-0.949999X0.949999X0.949999X-0.949999X0.949999X-0.949999X-0.949999X0*%
%ADD26C,0.650000*%
%ADD27O,1.000000X2.100000*%
%ADD28O,1.000000X1.800000*%
%ADD29C,2.000000*%
G04 APERTURE END LIST*
D10*
%TO.C,H10*%
X176800000Y-137400000D03*
%TD*%
D11*
%TO.C,J24*%
X159035000Y-97800000D03*
D12*
X161575000Y-97800000D03*
%TD*%
D13*
%TO.C,J8*%
X110800000Y-110300000D03*
D14*
X110800000Y-111300000D03*
X110800000Y-112300000D03*
%TD*%
D15*
%TO.C,J3*%
X102700000Y-135000000D03*
D16*
X106200000Y-135000000D03*
%TD*%
D11*
%TO.C,J23*%
X141570000Y-138240000D03*
D12*
X144110000Y-138240000D03*
X146650000Y-138240000D03*
X149190000Y-138240000D03*
%TD*%
D10*
%TO.C,H16*%
X176510000Y-43320000D03*
%TD*%
D11*
%TO.C,J10*%
X153440000Y-138110000D03*
D12*
X153440000Y-135570000D03*
X153440000Y-133030000D03*
X153440000Y-130490000D03*
%TD*%
D10*
%TO.C,H6*%
X176560000Y-97240000D03*
%TD*%
%TO.C,H11*%
X117500000Y-103800000D03*
%TD*%
D11*
%TO.C,J27*%
X118160000Y-77370000D03*
D12*
X118160000Y-79910000D03*
X118160000Y-82450000D03*
%TD*%
D15*
%TO.C,J1*%
X120300000Y-108400000D03*
D16*
X120300000Y-111900000D03*
X120300000Y-115400000D03*
X120300000Y-118900000D03*
X120300000Y-122400000D03*
X120300000Y-125900000D03*
X120300000Y-129400000D03*
X120300000Y-132900000D03*
%TD*%
D11*
%TO.C,J17*%
X171130000Y-137990000D03*
D12*
X168590000Y-137990000D03*
%TD*%
D17*
%TO.C,U9*%
X100140000Y-95600000D03*
D18*
X97600000Y-95600000D03*
X95060000Y-95600000D03*
X92520000Y-95600000D03*
X89980000Y-95600000D03*
X87440000Y-95600000D03*
X84900000Y-95600000D03*
X82360000Y-95600000D03*
X82360000Y-103220000D03*
X84900000Y-103220000D03*
X87440000Y-103220000D03*
X89980000Y-103220000D03*
X92520000Y-103220000D03*
X95060000Y-103220000D03*
X97600000Y-103220000D03*
X100140000Y-103220000D03*
%TD*%
D11*
%TO.C,J33*%
X166395000Y-97790000D03*
D12*
X168935000Y-97790000D03*
X171475000Y-97790000D03*
%TD*%
D11*
%TO.C,J37*%
X163580000Y-67240000D03*
D19*
X166120000Y-67240000D03*
X168660000Y-67240000D03*
X171200000Y-67240000D03*
%TD*%
D20*
%TO.C,J43*%
X82250000Y-76370000D03*
D21*
X82250000Y-77640000D03*
%TD*%
D11*
%TO.C,J42*%
X87115000Y-83160000D03*
D19*
X89655000Y-83160000D03*
%TD*%
D10*
%TO.C,H12*%
X117700000Y-137600000D03*
%TD*%
D11*
%TO.C,J26*%
X118110000Y-87275000D03*
D12*
X118110000Y-89815000D03*
X118110000Y-92355000D03*
%TD*%
D22*
%TO.C,Q20*%
X151560000Y-53490000D03*
D23*
X150290000Y-53490000D03*
X149020000Y-53490000D03*
%TD*%
D11*
%TO.C,J19*%
X139820000Y-97720000D03*
D12*
X137280000Y-97720000D03*
X134740000Y-97720000D03*
X132200000Y-97720000D03*
%TD*%
D20*
%TO.C,J46*%
X112420000Y-66585000D03*
D21*
X112420000Y-65315000D03*
%TD*%
D20*
%TO.C,J44*%
X82140000Y-68480000D03*
D21*
X82140000Y-69750000D03*
X82140000Y-71020000D03*
X82140000Y-72290000D03*
%TD*%
D10*
%TO.C,H1*%
X83000000Y-89400000D03*
%TD*%
%TO.C,H15*%
X118980000Y-43370000D03*
%TD*%
D11*
%TO.C,J30*%
X91840000Y-45250000D03*
D19*
X91840000Y-42710000D03*
X94380000Y-45250000D03*
X94380000Y-42710000D03*
X96920000Y-45250000D03*
X96920000Y-42710000D03*
X99460000Y-45250000D03*
X99460000Y-42710000D03*
X102000000Y-45250000D03*
X102000000Y-42710000D03*
%TD*%
D20*
%TO.C,J36*%
X112430000Y-78390000D03*
D21*
X112430000Y-77120000D03*
%TD*%
D11*
%TO.C,J4*%
X98200000Y-138200000D03*
D12*
X95660000Y-138200000D03*
%TD*%
D20*
%TO.C,J32*%
X112420000Y-73130000D03*
D21*
X112420000Y-74400000D03*
%TD*%
D22*
%TO.C,Q18*%
X157330000Y-53460000D03*
D23*
X156060000Y-53460000D03*
X154790000Y-53460000D03*
%TD*%
D17*
%TO.C,U13*%
X138380000Y-77810000D03*
D18*
X138380000Y-80350000D03*
X138380000Y-82890000D03*
X138380000Y-85430000D03*
X146000000Y-85430000D03*
X146000000Y-82890000D03*
X146000000Y-80350000D03*
X146000000Y-77810000D03*
%TD*%
D13*
%TO.C,J7*%
X106600000Y-105800000D03*
D14*
X107600000Y-105800000D03*
X108600000Y-105800000D03*
%TD*%
D11*
%TO.C,J18*%
X150740000Y-71990000D03*
D12*
X153280000Y-71990000D03*
%TD*%
D10*
%TO.C,H4*%
X111200000Y-137500000D03*
%TD*%
%TO.C,H5*%
X117910000Y-97170000D03*
%TD*%
D11*
%TO.C,J20*%
X141260000Y-72040000D03*
D12*
X143800000Y-72040000D03*
X146340000Y-72040000D03*
%TD*%
D10*
%TO.C,H8*%
X176720000Y-72830000D03*
%TD*%
D11*
%TO.C,J34*%
X176600000Y-87100000D03*
D12*
X176600000Y-89640000D03*
X176600000Y-92180000D03*
%TD*%
D10*
%TO.C,H18*%
X82750000Y-43290000D03*
%TD*%
D24*
%TO.C,J38*%
X119632500Y-55990000D03*
D16*
X119632500Y-59490000D03*
%TD*%
D10*
%TO.C,H3*%
X82700000Y-137500000D03*
%TD*%
D13*
%TO.C,J11*%
X84500000Y-93300000D03*
D14*
X83500000Y-93300000D03*
X82500000Y-93300000D03*
%TD*%
D13*
%TO.C,J6*%
X92500000Y-93300000D03*
D14*
X91500000Y-93300000D03*
X90500000Y-93300000D03*
%TD*%
D11*
%TO.C,J15*%
X137770000Y-138240000D03*
D12*
X135230000Y-138240000D03*
%TD*%
D13*
%TO.C,J9*%
X110800000Y-108300000D03*
D14*
X110800000Y-107300000D03*
X110800000Y-106300000D03*
%TD*%
D11*
%TO.C,J14*%
X104620000Y-94300000D03*
D12*
X107160000Y-94300000D03*
%TD*%
D25*
%TO.C,J40*%
X108967500Y-61590000D03*
D16*
X108967500Y-58090000D03*
%TD*%
D10*
%TO.C,H9*%
X176600000Y-103600000D03*
%TD*%
%TO.C,H19*%
X111550000Y-81940000D03*
%TD*%
D17*
%TO.C,U20*%
X150300000Y-77830000D03*
D18*
X150300000Y-80370000D03*
X150300000Y-82910000D03*
X150300000Y-85450000D03*
X157920000Y-85450000D03*
X157920000Y-82910000D03*
X157920000Y-80370000D03*
X157920000Y-77830000D03*
%TD*%
D11*
%TO.C,J22*%
X151505000Y-97800000D03*
D12*
X154045000Y-97800000D03*
%TD*%
D11*
%TO.C,J13*%
X107100000Y-99400000D03*
D12*
X104560000Y-99400000D03*
%TD*%
D15*
%TO.C,J5*%
X87750000Y-135000000D03*
D16*
X91250000Y-135000000D03*
%TD*%
D13*
%TO.C,J12*%
X86500000Y-93300000D03*
D14*
X87500000Y-93300000D03*
X88500000Y-93300000D03*
%TD*%
D10*
%TO.C,H7*%
X117940000Y-72720000D03*
%TD*%
D26*
%TO.C,J39*%
X129800000Y-46785000D03*
X124020000Y-46785000D03*
D27*
X131230000Y-47285000D03*
D28*
X131230000Y-43105000D03*
D27*
X122590000Y-47285000D03*
D28*
X122590000Y-43105000D03*
%TD*%
D10*
%TO.C,H20*%
X83080000Y-81880000D03*
%TD*%
D11*
%TO.C,J31*%
X135670000Y-67120000D03*
D19*
X138210000Y-67120000D03*
X140750000Y-67120000D03*
X143290000Y-67120000D03*
%TD*%
D11*
%TO.C,J29*%
X148940000Y-67100000D03*
D19*
X148940000Y-64560000D03*
X151480000Y-67100000D03*
X151480000Y-64560000D03*
X154020000Y-67100000D03*
X154020000Y-64560000D03*
X156560000Y-67100000D03*
X156560000Y-64560000D03*
%TD*%
D11*
%TO.C,J21*%
X122300000Y-97720000D03*
D12*
X124840000Y-97720000D03*
X127380000Y-97720000D03*
%TD*%
D15*
%TO.C,J2*%
X174500000Y-132500000D03*
D16*
X174500000Y-129000000D03*
X174500000Y-125500000D03*
X174500000Y-122000000D03*
X174500000Y-118500000D03*
X174500000Y-115000000D03*
X174500000Y-111500000D03*
X174500000Y-108000000D03*
%TD*%
D11*
%TO.C,J25*%
X144350000Y-97720000D03*
D12*
X146890000Y-97720000D03*
%TD*%
D11*
%TO.C,J41*%
X94310000Y-83140000D03*
D19*
X96850000Y-83140000D03*
X99390000Y-83140000D03*
X101930000Y-83140000D03*
%TD*%
D10*
%TO.C,H2*%
X111500000Y-89400000D03*
%TD*%
D29*
%TO.C,SW1*%
X147440000Y-46490000D03*
X140940000Y-46490000D03*
X147440000Y-41990000D03*
X140940000Y-41990000D03*
%TD*%
D11*
%TO.C,J35*%
X176600000Y-77575000D03*
D12*
X176600000Y-80115000D03*
X176600000Y-82655000D03*
%TD*%
D20*
%TO.C,J45*%
X112420000Y-70500000D03*
D21*
X112420000Y-69230000D03*
%TD*%
D10*
%TO.C,H14*%
X118900000Y-65980000D03*
%TD*%
D20*
%TO.C,J28*%
X101550000Y-57930000D03*
D21*
X100280000Y-57930000D03*
X99010000Y-57930000D03*
X97740000Y-57930000D03*
X96470000Y-57930000D03*
X95200000Y-57930000D03*
X93930000Y-57930000D03*
X92660000Y-57930000D03*
%TD*%
D11*
%TO.C,J16*%
X132890000Y-103300000D03*
D12*
X135430000Y-103300000D03*
X137970000Y-103300000D03*
X140510000Y-103300000D03*
X143050000Y-103300000D03*
X145590000Y-103300000D03*
X148130000Y-103300000D03*
X150670000Y-103300000D03*
X153210000Y-103300000D03*
X155750000Y-103300000D03*
%TD*%
D10*
%TO.C,H13*%
X176710000Y-66540000D03*
%TD*%
D29*
%TO.C,SW2*%
X152180000Y-41990000D03*
X158680000Y-41990000D03*
X152180000Y-46490000D03*
X158680000Y-46490000D03*
%TD*%
D10*
%TO.C,H17*%
X111220000Y-43330000D03*
%TD*%
M02*
