M48
; DRILL file {KiCad 9.0.7-9.0.7~ubuntu24.04.1} date 2026-03-16T20:19:31+0100
; FORMAT={-:-/ absolute / inch / decimal}
; #@! TF.CreationDate,2026-03-16T20:19:31+01:00
; #@! TF.GenerationSoftware,Kicad,Pcbnew,9.0.7-9.0.7~ubuntu24.04.1
; #@! TF.FileFunction,Plated,1,2,PTH
FMAT,2
INCH
; #@! TA.AperFunction,Plated,PTH,ViaDrill
T1C0.0118
; #@! TA.AperFunction,Plated,PTH,ComponentDrill
T2C0.0197
; #@! TA.AperFunction,Plated,PTH,ComponentDrill
T3C0.0236
; #@! TA.AperFunction,Plated,PTH,ComponentDrill
T4C0.0256
; #@! TA.AperFunction,Plated,PTH,ComponentDrill
T5C0.0295
; #@! TA.AperFunction,Plated,PTH,ComponentDrill
T6C0.0315
; #@! TA.AperFunction,Plated,PTH,ComponentDrill
T7C0.0394
; #@! TA.AperFunction,Plated,PTH,ComponentDrill
T8C0.0433
; #@! TA.AperFunction,Plated,PTH,ComponentDrill
T9C0.0472
; #@! TA.AperFunction,Plated,PTH,ComponentDrill
T10C0.0866
%
G90
G05
T1
X3.2079Y-2.6075
X3.3425Y-4.8465
X3.3811Y-2.0819
X3.3937Y-4.626
X3.4134Y-4.748
X3.4772Y-3.0969
X3.5276Y-2.0835
X3.5591Y-5.0748
X3.6024Y-4.8819
X3.6585Y-2.0844
X3.711Y-2.9319
X3.7154Y-3.1717
X3.7638Y-4.1654
X3.7644Y-4.6102
X3.7953Y-4.1575
X3.8035Y-2.087
X3.8622Y-4.1614
X3.8858Y-4.2559
X3.9421Y-2.0803
X3.9567Y-4.3307
X3.9567Y-4.3937
X3.9882Y-4.1339
X4.0Y-4.8543
X4.0354Y-4.4331
X4.0591Y-4.2441
X4.0748Y-4.0866
X4.0909Y-2.0803
X4.0984Y-4.1614
X4.1535Y-4.3425
X4.1575Y-4.8307
X4.2252Y-2.0768
X4.248Y-4.2953
X4.2713Y-2.0819
X4.3031Y-4.3386
X4.3071Y-3.815
X4.939Y-1.8228
X4.9413Y-4.8976
X4.948Y-3.5311
X4.9594Y-5.3091
X4.9728Y-5.3929
X4.9772Y-5.2563
X4.9925Y-5.1539
X4.9953Y-4.4378
X4.9965Y-4.8437
X4.9969Y-4.3469
X5.0012Y-3.561
X5.0071Y-4.739
X5.0079Y-1.8346
X5.0148Y-4.9039
X5.0157Y-4.4028
X5.0193Y-4.7996
X5.0441Y-5.0063
X5.052Y-3.6315
X5.0575Y-4.6028
X5.0701Y-4.7346
X5.0874Y-4.5035
X5.1039Y-3.5287
X5.1106Y-5.0299
X5.1122Y-4.8256
X5.1201Y-4.7906
X5.1201Y-5.3016
X5.2079Y-2.3244
X5.2216Y-5.2783
X5.2343Y-4.6075
X5.2421Y-2.163
X5.2583Y-3.5843
X5.2858Y-4.8087
X5.3087Y-4.6476
X5.3114Y-4.8744
X5.3854Y-2.1567
X5.3917Y-4.4976
X5.4291Y-3.4555
X5.4307Y-4.5571
X5.4354Y-4.9945
X5.4374Y-3.5862
X5.5091Y-3.4307
X5.5205Y-4.5413
X5.5702Y-4.5216
X5.5827Y-2.1469
X5.6055Y-4.3961
X5.6207Y-2.1455
X5.6244Y-2.3453
X5.6303Y-5.1449
X5.6311Y-5.2449
X5.6327Y-5.1953
X5.6461Y-4.7474
X5.6496Y-2.502
X5.6574Y-5.0634
X5.6665Y-5.0008
X5.6787Y-5.3354
X5.6965Y-4.5165
X5.6972Y-3.6472
X5.7106Y-5.1681
X5.7126Y-3.5122
X5.722Y-2.1579
X5.7276Y-5.1043
X5.739Y-3.652
X5.7409Y-5.074
X5.7441Y-5.2654
X5.7541Y-2.1904
X5.7575Y-5.0445
X5.7678Y-4.9858
X5.7697Y-4.5626
X5.7697Y-4.728
X5.7799Y-2.2681
X5.7882Y-3.5756
X5.7921Y-5.0409
X5.8079Y-5.0091
X5.8126Y-3.7091
X5.8228Y-5.1823
X5.8232Y-2.2531
X5.826Y-5.3966
X5.8362Y-5.3166
X5.8398Y-5.037
X5.8445Y-2.9547
X5.8634Y-3.7106
X5.8687Y-3.4344
X5.8711Y-5.0399
X5.872Y-3.5701
X5.8873Y-5.2944
X5.8958Y-5.3682
X5.9035Y-5.0472
X5.911Y-1.9882
X5.9283Y-5.0732
X5.9394Y-5.2398
X5.9449Y-5.1374
X5.9476Y-3.7705
X5.9535Y-4.9413
X5.9646Y-5.2681
X5.9697Y-3.6331
X5.9728Y-5.3669
X5.9744Y-4.6457
X5.9811Y-4.5114
X5.9827Y-5.3201
X6.0039Y-4.7783
X6.0063Y-4.3642
X6.0126Y-3.6884
X6.0276Y-2.2008
X6.0433Y-2.378
X6.0602Y-4.4382
X6.0657Y-4.5374
X6.0736Y-3.622
X6.0787Y-4.7209
X6.0876Y-4.4734
X6.1118Y-2.3504
X6.1126Y-3.1028
X6.1142Y-4.7909
X6.1433Y-2.4012
X6.153Y-2.3514
X6.153Y-3.702
X6.1614Y-5.3213
X6.1717Y-5.4244
X6.1736Y-5.3689
X6.1858Y-2.3988
X6.1976Y-4.6311
X6.2014Y-4.8939
X6.2087Y-5.2764
X6.2106Y-4.4734
X6.2268Y-2.4083
X6.3008Y-4.2969
X6.3023Y-4.8638
X6.3173Y-4.1465
X6.3398Y-5.3295
X6.3409Y-5.3654
X6.353Y-3.5494
X6.361Y-4.1799
X6.3766Y-4.9904
X6.3957Y-4.1024
X6.4039Y-2.5469
X6.4108Y-4.1742
X6.4205Y-3.549
X6.4227Y-5.125
X6.4254Y-5.3407
X6.4303Y-5.4583
X6.436Y-4.2346
X6.4457Y-5.2669
X6.4606Y-4.1024
X6.4982Y-2.3518
X6.5122Y-4.4165
X6.5177Y-4.1142
X6.5205Y-3.5268
X6.5409Y-4.5965
X6.5433Y-2.3598
X6.5528Y-2.5457
X6.5535Y-5.3154
X6.5823Y-2.2953
X6.6154Y-3.5134
X6.6248Y-4.9941
X6.628Y-4.2456
X6.6335Y-2.3213
X6.6724Y-1.7421
X6.6933Y-3.5315
X6.7154Y-2.3764
X6.7213Y-1.7559
X6.8161Y-2.389
X7.0358Y-1.7858
T2
X3.248Y-3.6732
X3.2874Y-3.6732
X3.3268Y-3.6732
X3.4055Y-3.6732
X3.4449Y-3.6732
X3.4843Y-3.6732
X3.563Y-3.6732
X3.6024Y-3.6732
X3.6417Y-3.6732
X4.1969Y-4.1654
X4.2362Y-4.1654
X4.2756Y-4.1654
X4.3622Y-4.185
X4.3622Y-4.2244
X4.3622Y-4.2638
X4.3622Y-4.3425
X4.3622Y-4.3819
X4.3622Y-4.4213
T4
X3.2339Y-2.6961
X3.2339Y-2.7461
X3.2339Y-2.7961
X3.2339Y-2.8461
X3.2382Y-3.0067
X3.2382Y-3.0567
X3.648Y-2.2807
X3.698Y-2.2807
X3.748Y-2.2807
X3.798Y-2.2807
X3.848Y-2.2807
X3.898Y-2.2807
X3.948Y-2.2807
X3.998Y-2.2807
X4.426Y-2.5715
X4.426Y-2.6215
X4.426Y-2.7256
X4.426Y-2.7756
X4.426Y-2.8791
X4.426Y-2.9291
X4.4264Y-3.0362
X4.4264Y-3.0862
T5
X5.8669Y-2.1059
X5.9169Y-2.1059
X5.9669Y-2.1059
X6.0941Y-2.1047
X6.1441Y-2.1047
X6.1941Y-2.1047
T6
X3.2425Y-3.7638
X3.2425Y-4.0638
X3.3425Y-3.7638
X3.3425Y-4.0638
X3.4425Y-3.7638
X3.4425Y-4.0638
X3.5425Y-3.7638
X3.5425Y-4.0638
X3.6425Y-3.7638
X3.6425Y-4.0638
X3.7425Y-3.7638
X3.7425Y-4.0638
X3.8425Y-3.7638
X3.8425Y-4.0638
X3.9425Y-3.7638
X3.9425Y-4.0638
X5.448Y-3.0634
X5.448Y-3.1634
X5.448Y-3.2634
X5.448Y-3.3634
X5.748Y-3.0634
X5.748Y-3.1634
X5.748Y-3.2634
X5.748Y-3.3634
X5.9173Y-3.0642
X5.9173Y-3.1642
X5.9173Y-3.2642
X5.9173Y-3.3642
X6.2173Y-3.0642
X6.2173Y-3.1642
X6.2173Y-3.2642
X6.2173Y-3.3642
T7
X3.4297Y-3.274
X3.5297Y-3.274
X3.6157Y-1.6815
X3.6157Y-1.7815
X3.713Y-3.2732
X3.7157Y-1.6815
X3.7157Y-1.7815
X3.7661Y-5.4409
X3.813Y-3.2732
X3.8157Y-1.6815
X3.8157Y-1.7815
X3.8661Y-5.4409
X3.913Y-3.2732
X3.9157Y-1.6815
X3.9157Y-1.7815
X4.013Y-3.2732
X4.0157Y-1.6815
X4.0157Y-1.7815
X4.1165Y-3.9134
X4.1189Y-3.7126
X4.2165Y-3.9134
X4.2189Y-3.7126
X4.65Y-3.436
X4.65Y-3.536
X4.65Y-3.636
X4.652Y-3.0461
X4.652Y-3.1461
X4.652Y-3.2461
X4.815Y-3.8472
X4.915Y-3.8472
X5.015Y-3.8472
X5.2047Y-3.8472
X5.2319Y-4.0669
X5.3047Y-3.8472
X5.324Y-5.4425
X5.3319Y-4.0669
X5.3413Y-2.6425
X5.4047Y-3.8472
X5.424Y-5.4425
X5.4319Y-4.0669
X5.4413Y-2.6425
X5.5047Y-3.8472
X5.5319Y-4.0669
X5.5413Y-2.6425
X5.5614Y-2.8362
X5.5736Y-5.4425
X5.6319Y-4.0669
X5.6413Y-2.6425
X5.6614Y-2.8362
X5.6736Y-5.4425
X5.6831Y-3.8472
X5.7319Y-4.0669
X5.7614Y-2.8362
X5.7736Y-5.4425
X5.7831Y-3.8472
X5.8319Y-4.0669
X5.8638Y-2.5417
X5.8638Y-2.6417
X5.8736Y-5.4425
X5.9319Y-4.0669
X5.9346Y-2.8343
X5.9638Y-2.5417
X5.9638Y-2.6417
X5.9648Y-3.8504
X6.0319Y-4.0669
X6.0346Y-2.8343
X6.0409Y-5.1374
X6.0409Y-5.2374
X6.0409Y-5.3374
X6.0409Y-5.4374
X6.0638Y-2.5417
X6.0638Y-2.6417
X6.0648Y-3.8504
X6.1319Y-4.0669
X6.1638Y-2.5417
X6.1638Y-2.6417
X6.2612Y-3.8504
X6.3612Y-3.8504
X6.4402Y-2.6472
X6.5402Y-2.6472
X6.551Y-3.85
X6.6374Y-5.4327
X6.6402Y-2.6472
X6.651Y-3.85
X6.7374Y-5.4327
X6.7402Y-2.6472
X6.751Y-3.85
X6.9528Y-3.0541
X6.9528Y-3.1541
X6.9528Y-3.2541
X6.9528Y-3.4291
X6.9528Y-3.5291
X6.9528Y-3.6291
T8
X5.5488Y-1.6531
X5.5488Y-1.8303
X5.8047Y-1.6531
X5.8047Y-1.8303
X5.9913Y-1.6531
X5.9913Y-1.8303
X6.2472Y-1.6531
X6.2472Y-1.8303
T9
X3.4547Y-5.315
X3.5925Y-5.315
X4.0433Y-5.315
X4.1811Y-5.315
X4.2901Y-2.287
X4.2901Y-2.4248
X4.7099Y-2.2043
X4.7099Y-2.3421
X4.7362Y-4.2677
X4.7362Y-4.4055
X4.7362Y-4.5433
X4.7362Y-4.6811
X4.7362Y-4.8189
X4.7362Y-4.9567
X4.7362Y-5.0945
X4.7362Y-5.2323
X6.8701Y-4.252
X6.8701Y-4.3898
X6.8701Y-4.5276
X6.8701Y-4.6654
X6.8701Y-4.8031
X6.8701Y-4.9409
X6.8701Y-5.0787
X6.8701Y-5.2165
T10
X3.2559Y-5.4134
X3.2579Y-1.7043
X3.2677Y-3.5197
X3.2709Y-3.2236
X4.378Y-5.4134
X4.3787Y-1.7059
X4.3898Y-3.5197
X4.3917Y-3.226
X4.626Y-4.0866
X4.6339Y-5.4173
X4.6421Y-3.8256
X4.6433Y-2.863
X4.6811Y-2.5976
X4.6843Y-1.7075
X6.9492Y-1.7055
X6.9512Y-3.8283
X6.9528Y-4.0787
X6.9571Y-2.6197
X6.9575Y-2.8673
X6.9606Y-5.4094
T3
G00X4.8264Y-1.7128
M15
G01X4.8264Y-1.6813
M16
G05
G00X4.8264Y-1.8833
M15
G01X4.8264Y-1.84
M16
G05
G00X5.1665Y-1.7128
M15
G01X5.1665Y-1.6813
M16
G05
G00X5.1665Y-1.8833
M15
G01X5.1665Y-1.84
M16
G05
M30
